<?xml version="1.0" encoding="UTF-8"?>
<svg version="1.1" viewBox="0 0 274.6 61" xmlns="http://www.w3.org/2000/svg">
<defs>

</defs>
<path class="st1" d="M38.7,14.1l1.7-6.3C42.2,1.3,37.4,0,34.4,0H8.5L0,31.9h12.7l2.6-9.7h12.3c4.2,0,9.4-1.8,11.1-8.2M27.7,8l-1.6,6c-.6,2.2-1.5,2.7-3.3,2.7h-6l3.1-11.5h6.4c1.7,0,2.1.5,1.5,2.7"></path>
<path class="st1" d="M59.6,14.6c-.2,1.1-.2.9-.4,1.6h-12.7c-5.3,0-7.4,2.2-8.7,7.1l-.4,1.5c-1.3,4.9-.4,7.1,4.9,7.1h24.5c.5-1.7.5-2,1.2-4.4l2.7-10.3c1.7-6.4,0-8.7-5.5-8.7h-18.2l-1.2,4.6h12.3c1.6,0,1.9.4,1.6,1.5M56.9,24.5c-.8,3-1,2.8-3.2,2.8h-2.7c-1.8,0-2.4-.3-1.9-2l.6-2.5c.4-1.7,1.2-2,3-2h5.2l-1,3.7Z"></path>
<path class="st1" d="M82.9,31.9c.6-2.4.6-2.1,1.4-5.4l3.1-11.5c.4-1.4,1-1.9,2.4-1.9h6.1c.3-1.2.9-3.4,1.2-4.6h-12.9c-5.5,0-8.7,3.3-10.1,8.5l-2.5,9.5c-.8,3.2-.8,3-1.4,5.4h12.7Z"></path>
<path class="st1" d="M114.3,27.4h-4.9c-2.1,0-2.2-.4-1.8-1.9l3.3-12.4h7.4l1.2-4.6h-7.4l1.3-5.1h-11.8l-5.7,21.2c-1.5,5.8,1.3,7.3,5,7.3h12.8l1.2-4.6h-.8Z"></path>
<path class="st1" d="M135.7,15.7c-.3-.6-.5-1.3.1-1.9.5-.6.8-.7,2-.7h5.2l1.2-4.6h-15.9c-2.1,0-3.8.3-5.4,2.2-1.6,1.9-1.8,4.3-.9,6.3l3.5,7.5c.3.7.2,1.5-.3,2-.4.5-1.1.8-1.9.8h-5.3l-1.2,4.6h16.7c2.1,0,3.8-.5,5.2-2.4,2.1-2.9.8-5.6.3-6.5l-3.3-7.2Z"></path>
<path class="st0" d="M178.8,14.5c1.2-.5,2.7-2.6,3.2-4.4l.7-2.9c1.2-4.7,0-7.1-5.2-7.1h-26.9l-8.5,31.9h27.6c4.8,0,7.5-2.8,8.7-7.1l1.5-5.7c.7-2.6-.2-3.8-1.3-4.6M166.9,20.4s-.4,1.5-1,3.8c-.4,1.7-1.4,2.4-3.3,2.4h-6.1l2.3-8.7h6.2c1.9,0,2.3,1,1.9,2.5M170,7.2c-.7,2.6-1,3.6-1,3.6-.3,1.3-1.2,2-2.4,2h-6.4l2-7.5h6.4c1.3,0,1.7.5,1.4,1.9"></path>
<path class="st0" d="M208.9,8.5h-18.2l-1.2,4.6h12.3c1.6,0,1.9.4,1.6,1.5-.2,1.1-.2.9-.4,1.6h-12.7c-5.3,0-7.4,2.2-8.7,7.1l-.4,1.5c-1.3,4.9-.4,7.1,4.9,7.1h24.5c.5-1.7.5-2,1.2-4.4l2.7-10.3c1.7-6.4.1-8.7-5.5-8.7M200.7,24.5c-.8,3-1,2.8-3.2,2.8h-2.7c-1.8,0-2.4-.3-1.9-2l.6-2.5c.4-1.7,1.2-2,3-2h5.2l-1,3.7Z"></path>
<path class="st0" d="M232.5,15.7c-.3-.6-.4-1.3.1-1.9.5-.6.8-.7,2-.7h5.2l1.2-4.6h-15.9c-2.1,0-3.8.3-5.4,2.2-1.6,1.9-1.8,4.3-.9,6.3l3.5,7.5c.3.7.2,1.5-.3,2-.4.5-1.1.8-1.9.8h-5.3l-1.2,4.6h16.7c2.1,0,3.8-.5,5.2-2.4,2.1-2.9.8-5.6.3-6.5l-3.3-7.2Z"></path>
<path class="st0" d="M269.2,8.5h-17.9c-5.3,0-7.4,2.2-8.7,7.1l-2.5,9.3c-1.3,4.9-.4,7.1,4.9,7.1h20.4l1.2-4.6h-12.7c-1.9,0-2.5-.7-2-2.4l.4-1.7h19.7l2-7.7c1.3-4.9.4-7.1-4.9-7.1M262.8,15l-1,3.7h-8.2l1-3.7c.3-1.3.9-1.9,2.2-1.9h4.8c1.3,0,1.5.5,1.2,1.9"></path>
<path class="st1" d="m80.4 48c3.1-1.1 7.5-3.2 9.4-4.1s5.7-2.7 5.7-2.7-1.4-1.2-6.2 1.1l-11.8-1.8-1.7 0.6 9.3 3.2c-2 0.9-4 1.7-5.8 2.3l-3.4-1.6h-2.6l3.4 2.2c-5.8 1.5-10.3 1.5-14.3 1.4-17.7-0.3-31.9-6.8-31.8-15.7 0-2.2 1-5.2 2.7-7.1-3.2 2.4-5.3 5.3-5.2 8.5 0.3 10.2 16.8 16.4 33.6 16.6 2.1 0 3.9 0 5.7-0.2s2.6 0 5.5-0.7c4-0.8 5.7-1.5 7.6-2.1z"></path>
<path class="st0" d="m174.7 53.9h-5.1l-1 2.9h-3.1l5.3-14.2h2.7l5.3 14.2h-3.1l-1-2.9zm-4.3-2.4h3.6l-1.8-5.3-1.8 5.3z"></path>
<path class="st0" d="M179,51.4c0-1.6.4-3,1.1-3.9s1.8-1.5,3-1.5,1.9.4,2.5,1.2v-5.4h2.8v15h-2.5v-1.1c-.8.9-1.7,1.3-2.9,1.3s-2.2-.5-3-1.5-1.1-2.3-1.1-4.1ZM181.9,51.6c0,1,.2,1.8.5,2.3s.8.8,1.5.8,1.5-.4,1.8-1.1v-4.2c-.4-.7-1-1.1-1.8-1.1-1.4,0-2,1.1-2,3.3Z"></path>
<path class="st0" d="m194.5 53.3 2-7.1h2.9l-3.6 10.6h-2.7l-3.6-10.6h2.9l2 7.1z"></path>
<path class="st0" d="M204.9,57c-1.5,0-2.8-.5-3.8-1.4s-1.5-2.2-1.5-3.8v-.3c0-1.1.2-2,.6-2.8s1-1.5,1.7-1.9,1.6-.7,2.6-.7c1.4,0,2.6.5,3.4,1.4s1.2,2.2,1.2,3.9v1.2h-6.7c0,.7.4,1.2.8,1.7s1,.6,1.7.6c1.1,0,1.9-.4,2.5-1.2l1.4,1.6c-.4.6-1,1.1-1.7,1.4s-1.5.5-2.4.5ZM204.5,48.3c-.6,0-1,.2-1.4.6-.3.4-.6.9-.7,1.6h3.9v-.2c0-.6-.2-1.1-.5-1.5-.3-.3-.8-.5-1.4-.5Z"></path>
<path class="st0" d="m216.6 48.9h-1c-1.1 0-1.8 0.4-2.1 1.1v6.9h-2.8v-10.6h2.7v1.3c0.6-1 1.4-1.5 2.4-1.5s0.6 0 0.9 0.1v2.7z"></path>
<path class="st0" d="M221.6,43.6v2.6h1.8v2.1h-1.8v5.3c0,.4,0,.7.2.8s.4.3.9.3.6,0,.8,0v2.1c-.6.2-1.1.3-1.7.3-2,0-3-1-3-3v-5.7h-1.5v-2.1h1.5v-2.6h2.8Z"></path>
<path class="st0" d="M224.7,43.5c0-.4.1-.8.4-1s.7-.4,1.2-.4.9.1,1.2.4.4.6.4,1-.1.8-.4,1.1-.7.4-1.1.4-.9-.1-1.1-.4-.4-.6-.4-1.1ZM227.7,56.8h-2.8v-10.6h2.8v10.6Z"></path>
<path class="st0" d="M235.4,53.9c0-.3-.2-.6-.5-.8s-.9-.4-1.6-.5c-2.5-.5-3.8-1.6-3.8-3.2s.4-1.7,1.2-2.3,1.8-.9,3.1-.9,2.4.3,3.2.9,1.2,1.5,1.2,2.5h-2.8c0-.4-.1-.7-.4-1s-.7-.4-1.2-.4-.8.1-1.1.3-.4.5-.4.8.1.6.4.8.8.4,1.5.5,1.3.3,1.8.5c1.5.5,2.2,1.5,2.2,2.8s-.4,1.7-1.2,2.3-1.9.9-3.2.9-1.7-.2-2.4-.5-1.2-.7-1.6-1.3-.6-1.1-.6-1.8h2.7c0,.5.2.9.6,1.2s.8.4,1.4.4.9-.1,1.2-.3.4-.5.4-.8Z"></path>
<path class="st0" d="M239.6,43.5c0-.4.1-.8.4-1s.7-.4,1.2-.4.9.1,1.2.4.4.6.4,1-.1.8-.4,1.1-.7.4-1.1.4-.9-.1-1.1-.4-.4-.6-.4-1.1ZM242.6,56.8h-2.8v-10.6h2.8v10.6Z"></path>
<path class="st0" d="M247.3,46.2v1.2c.8-.9,1.9-1.4,3.1-1.4s2,.3,2.5,1,.8,1.6.8,2.9v6.8h-2.8v-6.8c0-.6-.1-1-.4-1.3s-.7-.4-1.3-.4-1.4.3-1.8,1v7.5h-2.8v-10.6h2.7Z"></path>
<path class="st0" d="M255.3,51.4c0-1.6.4-2.9,1.2-3.9s1.8-1.5,3.1-1.5,2.1.4,2.7,1.2v-1h2.7v10.2c0,.9-.2,1.7-.6,2.4s-1,1.2-1.8,1.6-1.7.5-2.7.5-1.5-.2-2.3-.5-1.3-.7-1.7-1.2l1.2-1.7c.7.8,1.6,1.2,2.6,1.2s1.3-.2,1.7-.6.6-1,.6-1.7v-.6c-.7.7-1.5,1.1-2.6,1.1s-2.3-.5-3.1-1.5-1.2-2.3-1.2-4h0ZM258.1,51.6c0,1,.2,1.7.6,2.3.4.5.9.8,1.6.8s1.5-.3,1.8-1v-4.4c-.4-.6-1-1-1.8-1s-1.2.3-1.6.8c-.4.6-.6,1.4-.6,2.5Z"></path>
</svg>