<svg width="99" height="24" viewBox="0 0 99 24" fill="none" xmlns="http://www.w3.org/2000/svg">
<g clip-path="url(#clip0_10633_35554)">
<path d="M13.7776 10.4498H7.99215L6.77416 14.9965H0.794922L4.80184 0H16.9403C18.1582 0 19.9645 0.442906 19.9645 2.45675C19.9645 2.80969 19.8953 3.20415 19.7776 3.65398L18.9818 6.609C18.1859 9.58477 15.7499 10.4498 13.7776 10.4498ZM13.8191 3.75086C13.8883 3.49481 13.9368 3.21107 13.9368 3.02422C13.9368 2.58131 13.7015 2.46367 13.1133 2.46367H10.1167L8.66343 7.87543H11.5008C12.3174 7.87543 12.7672 7.64014 13.0441 6.58824L13.8191 3.75086Z" fill="#0C70E8"></path>
<path d="M31.2101 14.9966H18.2274L22.2343 6.10352e-05H34.8364C36.6842 6.10352e-05 37.4869 0.678262 37.4869 1.99314C37.4869 2.39452 37.39 2.85819 37.2724 3.34954L36.9195 4.70594C36.6842 5.571 35.9575 6.55369 35.397 6.78899C35.7707 7.07273 36.1236 7.46719 36.1236 8.19383C36.1236 8.42913 36.0752 8.66442 36.006 8.96892L35.2793 11.661C34.7395 13.6748 33.4731 14.9897 31.2032 14.9897M29.826 9.58484C29.8745 9.41875 29.8952 9.28034 29.8952 9.16269C29.8952 8.6921 29.6115 8.41529 28.9125 8.41529H25.9852L24.8849 12.5122H27.7638C28.6565 12.5122 29.1202 12.1869 29.3347 11.3911L29.826 9.58484ZM31.2586 3.37722C31.2793 3.28034 31.307 3.12117 31.307 3.02428C31.307 2.65058 31.0717 2.48449 30.6011 2.48449H27.5769L26.6426 6.02082H29.6392C30.1997 6.02082 30.6219 5.71632 30.788 5.08657L31.2586 3.37722Z" fill="#0C70E8"></path>
<path d="M39.1063 14.9966C37.3485 14.9966 36.6219 14.1523 36.6219 12.8859C36.6219 12.5122 36.6911 12.1108 36.8087 11.6679L39.0371 3.32878C39.5561 1.43259 40.8641 6.10352e-05 43.1132 6.10352e-05H51.9921L51.3347 2.50525H46.5319C45.826 2.50525 45.3831 2.9966 45.1963 3.70248L44.5873 5.95162H49.5285L48.8503 8.48449H43.9091L43.1617 11.3634C43.1132 11.5295 43.0925 11.6886 43.0925 11.8063C43.0925 12.2769 43.4177 12.4845 44.1236 12.4845H48.6703L47.9921 14.9897H39.1132L39.1063 14.9966Z" fill="#002857"></path>
<path d="M56.7326 14.9965L55.6253 12.4913L52.4419 14.9965H48.8087L54.6703 10.3529L51.8122 3.98615H58.698L59.7291 6.32525L62.7049 3.98615H66.3381L60.6911 8.45673L63.6184 14.9965H56.7326Z" fill="#002857"></path>
<path d="M76.0406 14.9965H70.2275L69.1064 19.1695H63.577L67.6531 3.98615H78.9956C80.961 3.98615 81.7361 4.83044 81.7361 6.13839C81.7361 6.5121 81.6669 6.955 81.5493 7.40483L80.4213 11.5778C79.8815 13.5917 78.5735 14.9965 76.0406 14.9965ZM76.1306 6.98268C76.179 6.84428 76.179 6.69895 76.179 6.60898C76.179 6.28372 75.9922 6.13839 75.57 6.13839H73.3694C72.8296 6.13839 72.5527 6.37369 72.3867 6.98268L71.0303 12C70.9818 12.1384 70.9818 12.2837 70.9818 12.3737C70.9818 12.6989 71.1687 12.8443 71.5908 12.8443H73.7915C74.3313 12.8443 74.615 12.609 74.7742 12L76.1306 6.98268Z" fill="#002857"></path>
<path d="M92.8157 14.9965H84.1929C82.3659 14.9965 81.6392 14.436 81.6392 13.218C81.6392 12.7958 81.7361 12.2837 81.8953 11.6747L83.0648 7.31486C83.6738 5.01729 84.6565 3.98615 87.1409 3.98615H95.7638C97.5908 3.98615 98.3174 4.5467 98.3174 5.76469C98.3174 6.18684 98.2205 6.69895 98.0614 7.30794L96.8918 11.6678C96.2828 13.9654 95.3001 14.9965 92.8157 14.9965ZM92.6081 7.03113C92.6565 6.86504 92.6773 6.72663 92.6773 6.60898C92.6773 6.28372 92.4904 6.13839 91.9991 6.13839H89.7015C89.0925 6.13839 88.8365 6.39445 88.6704 7.03113L87.3555 11.9515C87.307 12.1176 87.2863 12.256 87.2863 12.3737C87.2863 12.6989 87.4731 12.8443 87.916 12.8443H90.2136C90.8711 12.8443 91.1271 12.5882 91.2932 11.9515L92.6081 7.03113Z" fill="#002857"></path>
<path d="M38.6427 22.609C40.1029 22.1107 42.1929 21.0865 43.051 20.6782C43.8607 20.2907 45.7499 19.3979 45.7499 19.3979C45.7499 19.3979 45.1063 18.8512 42.8295 19.9031L37.2932 19.0727L36.4904 19.3357L40.8641 20.8443H40.8365C39.8884 21.2665 38.9333 21.6609 38.1167 21.9516L36.532 21.2042L35.314 21.2319L36.9126 22.2422C34.1652 22.955 32.0683 22.9274 30.1583 22.8928C21.8122 22.7336 15.1063 19.6748 15.1894 15.5156C15.2102 14.4775 15.66 13.0588 16.442 12.173C14.9195 13.3149 13.9506 14.6851 13.9852 16.173C14.1098 20.9896 21.8953 23.8893 29.7984 23.9862C30.7672 24 31.66 23.9723 32.4697 23.9101C32.4697 23.9101 33.7084 23.8685 35.0579 23.5986C36.9541 23.218 37.7361 22.9066 38.6358 22.6021" fill="#0C70E8"></path>
</g>
<defs>
<clipPath id="clip0_10633_35554">
<rect width="97.5294" height="24" fill="white" transform="translate(0.794922)"></rect>
</clipPath>
</defs>
</svg>