<svg width="132" height="27" viewBox="0 0 132 27" fill="none" xmlns="http://www.w3.org/2000/svg">
<g clip-path="url(#clip0_10803_655)">
<path d="M13.8358 10.41H8.08092L6.87879 14.9372H0.919249L4.90933 0H16.9819C18.184 0 20 0.434816 20 2.45543C20 2.81352 19.9233 3.19718 19.821 3.63199L19.0281 6.5734C18.2352 9.54038 15.8053 10.41 13.8358 10.41ZM13.887 3.7343C13.9637 3.47853 14.0149 3.19718 14.0149 3.01813C14.0149 2.58332 13.7847 2.45543 13.1964 2.45543H10.2038L8.74594 7.85227H11.5595C12.3779 7.85227 12.8127 7.62207 13.0941 6.5734L13.887 3.7343Z" fill="#0C70E8"></path>
<path d="M31.2581 14.9372H18.3415L22.3315 0H34.8645C36.706 0 37.4989 0.665012 37.4989 1.96946C37.4989 2.35312 37.3966 2.83909 37.2943 3.32506L36.9362 4.68067C36.706 5.5503 35.9899 6.52224 35.4272 6.75244C35.8108 7.03379 36.1433 7.41745 36.1433 8.15919C36.1433 8.38939 36.0922 8.61959 36.0155 8.92652L35.2993 11.6121C34.7877 13.6072 33.5344 14.9372 31.2581 14.9372ZM29.9025 9.54038C29.9536 9.38691 29.9792 9.23345 29.9792 9.13114C29.9792 8.67074 29.6978 8.38939 29.0072 8.38939H26.0914L24.9916 12.4818H27.8563C28.7515 12.4818 29.2119 12.1493 29.4165 11.3564L29.9025 9.54038ZM31.3092 3.35064C31.3348 3.24833 31.3604 3.09487 31.3604 2.99256C31.3604 2.6089 31.1302 2.45543 30.6698 2.45543H27.6516L26.7309 5.98511H29.7234C30.2861 5.98511 30.6954 5.67819 30.8744 5.06433L31.3092 3.35064Z" fill="#0C70E8"></path>
<path d="M39.1359 14.9373C37.3967 14.9373 36.6549 14.0932 36.6549 12.8399C36.6549 12.4563 36.7316 12.0726 36.8339 11.6378L39.0592 3.32512C39.5707 1.43239 40.8752 0.0256348 43.126 0.0256348H51.9502L51.2852 2.53222H46.5022C45.8116 2.53222 45.3512 3.01819 45.1722 3.70878L44.5583 5.9596H49.4692L48.8042 8.46618H43.8933L43.1516 11.3053C43.1004 11.4587 43.0748 11.6378 43.0748 11.7401C43.0748 12.2005 43.4073 12.4051 44.0979 12.4051H48.6251L47.9601 14.9117H39.1359V14.9373Z" fill="#002857"></path>
<path d="M56.6564 14.9371L55.5566 12.4305L52.385 14.9371H48.7786L54.6102 10.3332L51.7711 3.98999H58.6259L59.649 6.31753L62.6159 3.98999H66.2224L60.5953 8.44046L63.5112 14.9371H56.6564Z" fill="#002857"></path>
<path d="M75.8651 14.9373H70.0846L68.9592 19.0808H63.4601L67.5269 3.9646H78.8065C80.776 3.9646 81.5433 4.80865 81.5433 6.1131C81.5433 6.49676 81.4666 6.93158 81.3643 7.3664L80.2389 11.5099C79.7017 13.5306 78.3973 14.9373 75.8651 14.9373ZM75.9674 6.95716C76.0186 6.82927 76.0186 6.6758 76.0186 6.5735C76.0186 6.24099 75.8396 6.1131 75.4047 6.1131H73.2051C72.668 6.1131 72.3866 6.3433 72.2331 6.95716L70.8775 11.9448C70.8264 12.0726 70.8264 12.2261 70.8264 12.3284C70.8264 12.6609 71.0054 12.7888 71.4402 12.7888H73.6399C74.177 12.7888 74.4584 12.5586 74.6118 11.9448L75.9674 6.95716Z" fill="#002857"></path>
<path d="M90.214 6.1131C89.549 6.1131 89.2677 6.3433 89.0631 7.03389L86.9401 14.9373H81.0062L82.8733 7.95468C83.5383 5.49924 85.0218 3.9646 87.6051 3.9646H93.6414L93.0531 6.1131H90.214Z" fill="#002857"></path>
<path d="M98.2197 10.8705L98.015 11.6634C97.9639 11.8169 97.9383 11.9703 97.9383 12.0982C97.9383 12.5586 98.2708 12.7632 98.9614 12.7632H104.895L104.307 14.9117H94.7923C92.9763 14.9117 92.2601 14.349 92.2601 13.1469C92.2601 12.7377 92.3624 12.2261 92.5159 11.6122L93.6925 7.26409C94.3063 4.9877 95.2783 3.9646 97.7593 3.9646H106.123C107.939 3.9646 108.655 4.5273 108.655 5.72944C108.655 6.13868 108.553 6.65023 108.399 7.26409L107.453 10.8449H98.2197V10.8705ZM103.079 7.00831C103.131 6.85485 103.156 6.70138 103.156 6.59907C103.156 6.26657 102.977 6.13868 102.517 6.13868H100.266C99.652 6.13868 99.3962 6.39445 99.2428 7.03389L98.7824 8.74758H102.619L103.079 7.00831Z" fill="#002857"></path>
<path d="M117.48 6.1131C116.559 6.1131 116.329 6.49676 116.329 6.906C116.329 7.05947 116.405 7.26409 116.456 7.34082L117.991 10.717C118.272 11.3053 118.375 11.6634 118.375 12.1749C118.375 12.6609 118.247 13.198 117.838 13.7863C117.173 14.7071 116.38 14.9373 115.408 14.9373H107.607L108.195 12.7888H110.702C111.494 12.7888 111.853 12.2517 111.853 11.8424C111.853 11.7146 111.801 11.5611 111.75 11.4588L110.113 7.95468C109.96 7.59659 109.883 7.23851 109.883 6.82927C109.883 6.18983 110.088 5.57598 110.548 5.01327C111.29 4.11806 112.083 3.9646 113.08 3.9646H120.498L119.884 6.1131H117.48Z" fill="#002857"></path>
<path d="M129.015 6.1131C128.094 6.1131 127.864 6.49676 127.864 6.906C127.864 7.05947 127.941 7.26409 127.992 7.34082L129.526 10.717C129.808 11.3053 129.91 11.6634 129.91 12.1749C129.91 12.6609 129.782 13.198 129.373 13.7863C128.708 14.7071 127.915 14.9373 126.943 14.9373H119.116L119.705 12.7888H122.211C123.004 12.7888 123.362 12.2517 123.362 11.8424C123.362 11.7146 123.311 11.5611 123.26 11.4588L121.623 7.95468C121.47 7.59659 121.393 7.23851 121.393 6.82927C121.393 6.18983 121.597 5.57598 122.058 5.01327C122.8 4.11806 123.592 3.9646 124.59 3.9646H132.007L131.419 6.1131H129.015Z" fill="#002857"></path>
<path d="M38.9925 22.8095C40.4504 22.3235 42.5221 21.3004 43.3662 20.8912C44.1847 20.5075 46.0518 19.6123 46.0518 19.6123C46.0518 19.6123 45.4124 19.0752 43.136 20.1238L37.6369 19.3054L36.844 19.5611L41.1921 21.0702H41.1665C40.2202 21.4795 39.2738 21.8631 38.4553 22.17L36.8695 21.4283L35.6674 21.4539L37.2532 22.4514C34.5164 23.1676 32.4446 23.142 30.5263 23.0908C22.2393 22.9374 15.5635 19.8937 15.6403 15.7501C15.6659 14.727 16.1007 13.2947 16.8936 12.425C15.3845 13.5505 14.4126 14.9316 14.4637 16.4151C14.5916 21.1981 22.3416 24.0883 30.1938 24.1907C31.1658 24.1907 32.0354 24.1651 32.8539 24.1139C32.8539 24.1139 34.0816 24.0628 35.4372 23.807C37.3043 23.4233 38.0717 23.1164 38.9925 22.8095Z" fill="#0C70E8"></path>
</g>
<defs>
<clipPath id="clip0_10803_655">
<rect width="132" height="28.0964" fill="white" transform="translate(0 -2)"></rect>
</clipPath>
</defs>
</svg>