<svg width="135" height="30" viewBox="0 0 135 30" fill="none" xmlns="http://www.w3.org/2000/svg">
<g clip-path="url(#clip0_10633_35634)">
<path d="M18.9869 6.61149L19.7874 3.65771C20.6018 0.607319 18.3796 0 16.951 0H4.80461L0.794922 15.0035H6.77149L7.99303 10.4555H13.7833C15.7501 10.4555 18.1932 9.58597 18.9869 6.61149ZM13.8316 3.75433L13.0586 6.59079C12.7757 7.64669 12.334 7.88134 11.5127 7.88134H8.67626L10.1324 2.46378H13.1345C13.9558 2.46378 14.1214 2.69843 13.8385 3.75433" fill="#0C70E8"></path>
<path d="M28.7868 6.84612C28.6695 7.36372 28.6695 7.29471 28.6004 7.61907H22.6239C20.1394 7.61907 19.1525 8.64737 18.5452 10.9455L18.3312 11.6702C17.7239 13.9683 18.1449 14.9966 20.6294 14.9966H32.1408C32.3755 14.1754 32.3962 14.058 32.6998 12.9331L33.9904 8.08146C34.8117 5.05867 34.0387 3.97516 31.3886 3.97516H22.8585L22.2719 6.12838H28.0414C28.8144 6.12838 28.9317 6.34232 28.7937 6.83232M27.5445 11.5114C27.1719 12.9193 27.0752 12.8503 26.0193 12.8503H24.7288C23.8868 12.8503 23.5763 12.7123 23.8109 11.9117L24.1146 10.7178C24.3285 9.92412 24.7012 9.77919 25.5431 9.77919H28.0069L27.5376 11.5114H27.5445Z" fill="#0C70E8"></path>
<path d="M39.7323 15.0036C40.036 13.8579 40.0153 13.996 40.4156 12.4708L41.8718 7.05321C42.0581 6.36998 42.3411 6.14223 43.0174 6.14223H45.9022C46.0678 5.55562 46.3507 4.52732 46.4888 3.98901H40.4156C37.8138 3.98901 36.3093 5.53492 35.6537 7.9987L34.4597 12.4777C34.0594 14.0029 34.087 13.9063 33.7834 15.0105H39.7393L39.7323 15.0036Z" fill="#0C70E8"></path>
<path d="M54.4736 12.8503H52.1547C51.1678 12.8503 51.0988 12.6639 51.2851 11.96L52.831 6.14906H56.3024L56.889 3.99584H53.4177L54.0526 1.60107H48.5177L45.8469 11.5666C45.1222 14.3065 46.4542 15.0104 48.214 15.0104H54.2389L54.8255 12.8572H54.4667L54.4736 12.8503Z" fill="#0C70E8"></path>
<path d="M64.5357 7.38448C64.3908 7.10152 64.3218 6.77716 64.6048 6.4735C64.8601 6.16984 65.005 6.14223 65.564 6.14223H68.0002L68.5868 3.98901H61.1334C60.1258 3.98901 59.3252 4.15465 58.5799 5.04492C57.8069 5.9559 57.7379 7.08772 58.1313 7.9987L59.7738 11.5184C59.9394 11.8704 59.8704 12.2223 59.6358 12.4777C59.4494 12.7123 59.1182 12.8503 58.7248 12.8503H56.2127L55.6261 15.0036H63.4798C64.4667 15.0036 65.2604 14.7689 65.916 13.8579C66.9029 12.4777 66.2887 11.2354 66.0816 10.7868L64.5357 7.38448Z" fill="#0C70E8"></path>
<path d="M84.7912 6.79783C85.3502 6.56318 86.0818 5.57629 86.3164 4.71362L86.6684 3.35406C87.255 1.15253 86.6477 0 84.2322 0H71.6235L67.6138 15.0035H80.6021C82.8796 15.0035 84.1425 13.6923 84.6808 11.6771L85.4054 8.97865C85.7298 7.73641 85.2881 7.1705 84.7981 6.79783M79.2149 9.58597C79.2149 9.58597 79.0286 10.2899 78.7249 11.3941C78.511 12.1878 78.0417 12.519 77.1514 12.519H74.2667L75.3709 8.41274H78.304C79.1942 8.41274 79.4082 8.88204 79.2149 9.58597ZM80.6435 3.37476C80.3122 4.617 80.1742 5.08629 80.1742 5.08629C80.0086 5.72122 79.5876 6.02488 79.0217 6.02488H76.0196L76.9582 2.48449H79.981C80.5883 2.48449 80.8022 2.73984 80.6366 3.37476" fill="#002857"></path>
<path d="M98.9045 3.98901H90.3744L89.7878 6.14223H95.5573C96.3303 6.14223 96.4476 6.35618 96.3096 6.84617C96.1922 7.36377 96.1923 7.28786 96.1232 7.61912H90.1467C87.6622 7.61912 86.6753 8.64742 86.068 10.9525L85.854 11.6771C85.2467 13.9753 85.6677 15.0036 88.1522 15.0036H99.6636C99.8983 14.1823 99.919 14.065 100.223 12.9401L101.513 8.08841C102.334 5.06562 101.562 3.98901 98.9114 3.98901M95.0604 11.5115C94.6878 12.9194 94.5911 12.8503 93.5352 12.8503H92.2447C91.4027 12.8503 91.0922 12.7123 91.3268 11.9118L91.6305 10.7178C91.8375 9.91727 92.2171 9.77924 93.059 9.77924H95.5228L95.0535 11.5115H95.0604Z" fill="#002857"></path>
<path d="M110.023 7.38448C109.885 7.10152 109.809 6.77716 110.092 6.4735C110.347 6.16984 110.492 6.14223 111.051 6.14223H113.487L114.074 3.98901H106.62C105.613 3.98901 104.812 4.15465 104.067 5.04492C103.294 5.9559 103.225 7.08772 103.618 7.9987L105.261 11.5184C105.426 11.8704 105.357 12.2223 105.116 12.4777C104.929 12.7123 104.598 12.8503 104.205 12.8503H101.693L101.106 15.0036H108.96C109.947 15.0036 110.74 14.7689 111.396 13.8579C112.383 12.4777 111.769 11.2354 111.562 10.7868L110.016 7.38448H110.023Z" fill="#002857"></path>
<path d="M127.248 3.98901H118.829C116.344 3.98901 115.357 5.01731 114.75 7.31546L113.577 11.6771C112.969 13.9753 113.39 15.0036 115.875 15.0036H125.44L126.027 12.8503H120.071C119.181 12.8503 118.877 12.5191 119.112 11.7254L119.326 10.9318H128.587L129.546 7.32236C130.154 5.02422 129.733 3.99591 127.248 3.99591M124.226 7.03251L123.756 8.76475H119.891L120.361 7.03251C120.526 6.39758 120.782 6.14223 121.389 6.14223H123.667C124.274 6.14223 124.391 6.39758 124.232 7.03251" fill="#002857"></path>
<path d="M38.566 22.5536C40.0221 22.0567 42.1063 21.0353 42.9621 20.6281C43.7696 20.2416 45.6536 19.3514 45.6536 19.3514C45.6536 19.3514 45.0118 18.8062 42.7413 19.8552L37.2202 19.027L36.4196 19.2893L40.7813 20.7937H40.7537C39.8082 21.2147 38.8558 21.6081 38.0415 21.898L36.461 21.1526L35.2464 21.1802L36.8406 22.1878C34.1008 22.9056 32.0097 22.8711 30.1049 22.8365C21.7819 22.6778 15.0945 19.6274 15.1773 15.4866C15.198 14.4514 15.6466 13.0366 16.4264 12.1533C14.9081 13.292 13.9419 14.6584 13.9765 16.1422C14.1007 20.9456 21.8647 23.8372 29.746 23.9339C30.7122 23.9477 31.6025 23.9201 32.41 23.8579C32.41 23.8579 33.6453 23.8165 34.9911 23.5474C36.882 23.1678 37.6619 22.8573 38.5591 22.5536" fill="#0C70E8"></path>
<path d="M71.9616 24.7896C71.7615 25.0312 71.4716 25.2175 71.1058 25.3486C70.7401 25.4798 70.3329 25.5488 69.8843 25.5488C69.415 25.5488 69.0009 25.4452 68.649 25.2382C68.297 25.0312 68.0209 24.7344 67.8277 24.3479C67.6345 23.9546 67.5378 23.4991 67.5309 22.9746V22.6019C67.5309 22.0567 67.6207 21.5943 67.807 21.194C67.9933 20.7937 68.2556 20.497 68.6007 20.283C68.9457 20.0691 69.346 19.9656 69.8084 19.9656C70.4502 19.9656 70.954 20.1174 71.3198 20.428C71.6856 20.7385 71.8995 21.1802 71.9685 21.7668H70.8781C70.8298 21.4563 70.7194 21.2285 70.5468 21.0836C70.3743 20.9387 70.1397 20.8697 69.8429 20.8697C69.4633 20.8697 69.1735 21.0146 68.9733 21.2975C68.7732 21.5874 68.6766 22.0084 68.6697 22.5743V22.9194C68.6697 23.4922 68.7801 23.92 68.994 24.2099C69.208 24.4998 69.5254 24.6447 69.9464 24.6447C70.3674 24.6447 70.6642 24.555 70.8436 24.3755V23.4439H69.8291V22.6226H71.9685V24.7896H71.9616Z" fill="#002857"></path>
<path d="M72.5758 23.4231C72.5758 23.0228 72.6517 22.664 72.8036 22.3534C72.9554 22.0428 73.1831 21.8013 73.4661 21.6288C73.7559 21.4562 74.0941 21.3734 74.4737 21.3734C75.0189 21.3734 75.4606 21.539 75.8056 21.8703C76.1507 22.2016 76.3439 22.6571 76.3785 23.2299V23.5059C76.3854 24.1271 76.2128 24.6239 75.8678 24.9966C75.5227 25.3693 75.0603 25.5556 74.4737 25.5556C73.8871 25.5556 73.4247 25.3693 73.0796 24.9966C72.7345 24.6239 72.562 24.1132 72.562 23.4783V23.43L72.5758 23.4231ZM73.6593 23.499C73.6593 23.8855 73.7283 24.1754 73.8733 24.3755C74.0182 24.5756 74.2252 24.6792 74.4944 24.6792C74.7635 24.6792 74.9568 24.5756 75.1086 24.3755C75.2535 24.1754 75.3295 23.8579 75.3295 23.4162C75.3295 23.0435 75.2535 22.7468 75.1086 22.5397C74.9637 22.3327 74.7566 22.2292 74.4875 22.2292C74.2183 22.2292 74.0182 22.3327 73.8733 22.5397C73.7283 22.7468 73.6593 23.0642 73.6593 23.4921" fill="#002857"></path>
<path d="M78.3523 24.1616L79.1045 21.4424H80.2294L78.8699 25.4728H77.8347L76.4751 21.4424H77.6L78.3523 24.1616Z" fill="#002857"></path>
<path d="M82.3205 25.5488C81.727 25.5488 81.2439 25.3694 80.8781 25.0036C80.5054 24.6378 80.3191 24.1547 80.3191 23.5543V23.4508C80.3191 23.0436 80.395 22.6847 80.5537 22.3604C80.7125 22.0429 80.9333 21.7945 81.2163 21.6219C81.4992 21.4494 81.8305 21.3597 82.1963 21.3597C82.7484 21.3597 83.1831 21.5322 83.5006 21.8842C83.8181 22.2292 83.9768 22.7261 83.9768 23.3611V23.8028H81.4095C81.444 24.065 81.5475 24.2789 81.727 24.4377C81.8995 24.5964 82.1272 24.6792 82.3895 24.6792C82.8036 24.6792 83.1279 24.5274 83.3626 24.2306L83.894 24.8242C83.7353 25.0519 83.5144 25.2313 83.2384 25.3556C82.9623 25.4867 82.6586 25.5488 82.3205 25.5488ZM82.1963 22.2362C81.9823 22.2362 81.8098 22.3121 81.6787 22.457C81.5475 22.6019 81.4578 22.809 81.4233 23.0781H82.9209V22.9953C82.9209 22.7538 82.8519 22.5674 82.7277 22.4363C82.6034 22.3052 82.424 22.2362 82.1963 22.2362Z" fill="#002857"></path>
<path d="M86.8202 22.4501C86.6753 22.4294 86.5442 22.4225 86.4337 22.4225C86.0266 22.4225 85.7574 22.5606 85.6332 22.8366V25.4729H84.5566V21.4357H85.5711L85.5987 21.9187C85.8126 21.5461 86.1163 21.3666 86.4959 21.3666C86.6132 21.3666 86.7305 21.3804 86.834 21.4149L86.8202 22.4501Z" fill="#002857"></path>
<path d="M88.2557 21.4424L88.2902 21.9117C88.5801 21.5528 88.9666 21.3734 89.4497 21.3734C89.8775 21.3734 90.195 21.4976 90.402 21.753C90.6091 22.0014 90.7195 22.381 90.7195 22.8779V25.4866H89.6429V22.9055C89.6429 22.6778 89.5946 22.5121 89.4911 22.4086C89.3875 22.3051 89.2288 22.2568 88.9942 22.2568C88.6905 22.2568 88.4628 22.3879 88.3109 22.6433V25.4866H87.2343V21.4493H88.2488L88.2557 21.4424Z" fill="#002857"></path>
<path d="M92.4794 21.4426L92.5139 21.8911C92.7969 21.5392 93.1833 21.3666 93.6733 21.3666C94.1909 21.3666 94.5498 21.5737 94.743 21.9809C95.026 21.5737 95.4263 21.3666 95.9577 21.3666C96.3925 21.3666 96.7168 21.4909 96.9377 21.7462C97.1516 22.0016 97.2551 22.3811 97.2551 22.8987V25.4729H96.1716V22.8987C96.1716 22.671 96.1302 22.5054 96.0405 22.3949C95.9508 22.2914 95.7921 22.2362 95.5643 22.2362C95.2399 22.2362 95.0191 22.388 94.8949 22.6986V25.466H93.8183V22.8987C93.8183 22.6641 93.7699 22.4985 93.6802 22.3949C93.5905 22.2914 93.4318 22.2362 93.2109 22.2362C92.9073 22.2362 92.6864 22.3604 92.5484 22.6158V25.466H91.4718V21.4288H92.4794V21.4426Z" fill="#002857"></path>
<path d="M99.8361 25.5488C99.2426 25.5488 98.7595 25.3694 98.3937 25.0036C98.0211 24.6378 97.8347 24.1547 97.8347 23.5543V23.4508C97.8347 23.0436 97.9106 22.6847 98.0694 22.3604C98.2281 22.0429 98.4489 21.7945 98.7319 21.6219C99.0148 21.4494 99.3461 21.3597 99.7119 21.3597C100.264 21.3597 100.699 21.5322 101.016 21.8842C101.334 22.2292 101.492 22.7261 101.492 23.3611V23.8028H98.9251C98.9596 24.065 99.0632 24.2789 99.2426 24.4377C99.4151 24.5964 99.6429 24.6792 99.9051 24.6792C100.319 24.6792 100.644 24.5274 100.878 24.2306L101.41 24.8242C101.251 25.0519 101.03 25.2313 100.754 25.3556C100.478 25.4867 100.174 25.5488 99.8361 25.5488ZM99.7119 22.2362C99.4979 22.2362 99.3254 22.3121 99.1943 22.457C99.0632 22.6019 98.9734 22.809 98.9389 23.0781H100.437V22.9953C100.437 22.7538 100.368 22.5674 100.243 22.4363C100.119 22.3052 99.9396 22.2362 99.7119 22.2362Z" fill="#002857"></path>
<path d="M103.073 21.4424L103.107 21.9117C103.397 21.5528 103.784 21.3734 104.267 21.3734C104.695 21.3734 105.012 21.4976 105.219 21.753C105.426 22.0014 105.537 22.381 105.537 22.8779V25.4866H104.46V22.9055C104.46 22.6778 104.412 22.5121 104.308 22.4086C104.205 22.3051 104.046 22.2568 103.811 22.2568C103.508 22.2568 103.28 22.3879 103.128 22.6433V25.4866H102.052V21.4493H103.066L103.073 21.4424Z" fill="#002857"></path>
<path d="M107.566 20.4487V21.4425H108.256V22.2292H107.566V24.2444C107.566 24.3962 107.593 24.4998 107.649 24.5619C107.704 24.624 107.814 24.6585 107.98 24.6585C108.097 24.6585 108.208 24.6516 108.297 24.6309V25.4452C108.083 25.5074 107.869 25.5419 107.642 25.5419C106.889 25.5419 106.503 25.1623 106.489 24.3962V22.2223H105.902V21.4356H106.489V20.4418H107.566V20.4487Z" fill="#002857"></path>
<path d="M110.678 25.4728V20.0483H112.348C112.825 20.0483 113.252 20.1588 113.632 20.3727C114.012 20.5866 114.301 20.8903 114.515 21.2906C114.729 21.684 114.833 22.1394 114.833 22.6432V22.8917C114.833 23.3955 114.729 23.8441 114.522 24.2375C114.315 24.6308 114.025 24.9345 113.646 25.1484C113.266 25.3624 112.845 25.4728 112.369 25.4728H110.685H110.678ZM111.796 20.9524V24.5756H112.335C112.769 24.5756 113.108 24.4307 113.335 24.1477C113.563 23.8648 113.687 23.4507 113.687 22.9193V22.6294C113.687 22.0773 113.577 21.6633 113.342 21.3734C113.114 21.0904 112.776 20.9455 112.341 20.9455H111.789L111.796 20.9524Z" fill="#002857"></path>
<path d="M117.8 25.4729C117.752 25.3763 117.718 25.2521 117.69 25.1141C117.428 25.4039 117.09 25.5489 116.675 25.5489C116.282 25.5489 115.951 25.4315 115.696 25.2038C115.433 24.976 115.309 24.6862 115.309 24.3411C115.309 23.9132 115.468 23.5889 115.785 23.3542C116.103 23.1265 116.558 23.0092 117.159 23.0092H117.655V22.7814C117.655 22.5951 117.607 22.4432 117.511 22.3328C117.414 22.2224 117.262 22.1672 117.055 22.1672C116.876 22.1672 116.731 22.2086 116.627 22.2983C116.524 22.388 116.475 22.5054 116.475 22.6572H115.399C115.399 22.4225 115.468 22.2086 115.613 22.0085C115.758 21.8083 115.965 21.6565 116.227 21.5392C116.489 21.4288 116.786 21.3666 117.11 21.3666C117.607 21.3666 118.001 21.4909 118.297 21.7393C118.587 21.9878 118.739 22.3397 118.739 22.7952V24.5413C118.739 24.9208 118.794 25.2176 118.898 25.4108V25.4729H117.807H117.8ZM116.91 24.7276C117.069 24.7276 117.214 24.6931 117.352 24.6241C117.483 24.5551 117.586 24.4584 117.649 24.3411V23.6441H117.248C116.71 23.6441 116.42 23.8304 116.386 24.2031V24.2652C116.386 24.4032 116.427 24.5137 116.524 24.5965C116.62 24.6862 116.745 24.7276 116.91 24.7276Z" fill="#002857"></path>
<path d="M120.754 20.4487V21.4425H121.444V22.2292H120.754V24.2444C120.754 24.3962 120.782 24.4998 120.837 24.5619C120.892 24.624 121.003 24.6585 121.168 24.6585C121.286 24.6585 121.396 24.6516 121.486 24.6309V25.4452C121.272 25.5074 121.058 25.5419 120.83 25.5419C120.078 25.5419 119.691 25.1623 119.677 24.3962V22.2223H119.091V21.4356H119.677V20.4418H120.754V20.4487Z" fill="#002857"></path>
<path d="M124.336 25.4729C124.288 25.3763 124.253 25.2521 124.226 25.1141C123.963 25.4039 123.625 25.5489 123.211 25.5489C122.818 25.5489 122.486 25.4315 122.231 25.2038C121.969 24.976 121.845 24.6862 121.845 24.3411C121.845 23.9132 122.003 23.5889 122.321 23.3542C122.638 23.1265 123.094 23.0092 123.694 23.0092H124.191V22.7814C124.191 22.5951 124.143 22.4432 124.046 22.3328C123.949 22.2224 123.798 22.1672 123.591 22.1672C123.411 22.1672 123.266 22.2086 123.163 22.2983C123.059 22.388 123.011 22.5054 123.011 22.6572H121.934C121.934 22.4225 122.003 22.2086 122.148 22.0085C122.293 21.8083 122.493 21.6565 122.762 21.5392C123.025 21.4288 123.321 21.3666 123.646 21.3666C124.143 21.3666 124.536 21.4909 124.833 21.7393C125.123 21.9878 125.275 22.3397 125.275 22.7952V24.5413C125.275 24.9208 125.33 25.2176 125.433 25.4108V25.4729H124.343H124.336ZM123.446 24.7276C123.604 24.7276 123.749 24.6931 123.887 24.6241C124.018 24.5551 124.122 24.4584 124.184 24.3411V23.6441H123.784C123.246 23.6441 122.956 23.8304 122.921 24.2031V24.2652C122.921 24.4032 122.963 24.5137 123.059 24.5965C123.156 24.6862 123.28 24.7276 123.446 24.7276Z" fill="#002857"></path>
</g>
<defs>
<clipPath id="clip0_10633_35634">
<rect width="134" height="30" fill="white" transform="translate(0.794922)"></rect>
</clipPath>
</defs>
</svg>