<svg width="135" height="30" viewBox="0 0 135 30" fill="none" xmlns="http://www.w3.org/2000/svg">
<g clip-path="url(#clip0_10633_35633)">
<path d="M18.9418 6.5951L19.7404 3.64865C20.5527 0.605813 18.336 0 16.9109 0H4.79467L0.794922 14.9663H6.75668L7.97519 10.4296H13.7511C15.7131 10.4296 18.1501 9.56221 18.9418 6.5951ZM13.7993 3.74503L13.0282 6.57445C12.746 7.62774 12.3054 7.8618 11.4862 7.8618H8.65673L10.1093 2.45767H13.1039C13.9232 2.45767 14.0884 2.69174 13.8061 3.74503" fill="#0C70E8"></path>
<path d="M28.7174 6.82925C28.6004 7.34557 28.6004 7.27673 28.5316 7.60029H22.5698C20.0915 7.60029 19.107 8.62604 18.5012 10.9185L18.2878 11.6413C17.682 13.9338 18.1019 14.9595 20.5803 14.9595H32.0632C32.2972 14.1403 32.3179 14.0233 32.6208 12.9012L33.9082 8.06153C34.7274 5.04623 33.9563 3.97229 31.3128 3.97229H22.8039L22.2187 6.12017H27.9739C28.745 6.12017 28.862 6.33359 28.7243 6.82237M27.4783 11.483C27.1065 12.8874 27.0101 12.8185 25.9569 12.8185H24.6695C23.8296 12.8185 23.5198 12.6809 23.7539 11.8823L24.0568 10.6913C24.2702 9.89962 24.642 9.75505 25.4818 9.75505H27.9395L27.4714 11.483H27.4783Z" fill="#0C70E8"></path>
<path d="M39.6358 14.9664C39.9387 13.8236 39.9181 13.9613 40.3174 12.4399L41.7699 7.03573C41.9558 6.35419 42.2381 6.12701 42.9127 6.12701H45.7903C45.9556 5.54185 46.2378 4.5161 46.3755 3.97913H40.3174C37.722 3.97913 36.2212 5.5212 35.5672 7.97887L34.3763 12.4467C33.977 13.9682 34.0045 13.8718 33.7016 14.9733H39.6427L39.6358 14.9664Z" fill="#0C70E8"></path>
<path d="M54.3406 12.8185H52.0275C51.043 12.8185 50.9742 12.6327 51.1601 11.9305L52.7021 6.12705H56.1649L56.7501 3.97916H53.2873L53.9207 1.59033H48.3995L45.7353 11.5312C45.0124 14.2642 46.3411 14.9664 48.0966 14.9664H54.1065L54.6917 12.8185H54.3337H54.3406Z" fill="#0C70E8"></path>
<path d="M64.3778 7.36617C64.2332 7.08392 64.1644 6.76036 64.4466 6.45745C64.7014 6.15455 64.8459 6.12701 65.4035 6.12701H67.8337L68.4188 3.97913H60.9839C59.9788 3.97913 59.1802 4.14435 58.4367 5.03241C57.6657 5.94114 57.5968 7.07015 57.9892 7.97887L59.6277 11.4898C59.7929 11.8409 59.724 12.192 59.49 12.4467C59.3041 12.6808 58.9737 12.8185 58.5813 12.8185H56.0754L55.4902 14.9664H63.3245C64.309 14.9664 65.1006 14.7323 65.7546 13.8236C66.7391 12.4467 66.1264 11.2076 65.9199 10.7601L64.3778 7.36617Z" fill="#0C70E8"></path>
<path d="M84.583 6.78098C85.1406 6.54691 85.8704 5.56247 86.1044 4.70194L86.4555 3.34574C87.0407 1.14967 86.4349 0 84.0254 0H71.4479L67.4481 14.9663H80.4043C82.6761 14.9663 83.9359 13.6583 84.4729 11.6481L85.1957 8.9564C85.5193 7.71724 85.0787 7.15273 84.5899 6.78098M79.0205 9.56221C79.0205 9.56221 78.8347 10.2644 78.5317 11.3659C78.3183 12.1576 77.8502 12.488 76.9621 12.488H74.0845L75.186 8.39878H78.1118C78.9999 8.39878 79.2133 8.8669 79.0205 9.5691M80.4456 3.36639C80.1151 4.60556 79.9774 5.07369 79.9774 5.07369C79.8122 5.70704 79.3923 6.00994 78.8278 6.00994H75.8331L76.7694 2.47833H79.7847C80.3905 2.47833 80.6039 2.73304 80.4387 3.36639" fill="#002857"></path>
<path d="M98.6613 3.97913H90.1524L89.5672 6.12701H95.3225C96.0935 6.12701 96.2105 6.34042 96.0728 6.8292C95.9558 7.34552 95.9558 7.27668 95.887 7.60024H89.9252C87.4469 7.60024 86.4624 8.63287 85.8566 10.9253L85.6432 11.6482C85.0374 13.9406 85.4573 14.9664 87.9357 14.9664H99.4186C99.6526 14.1472 99.6733 14.0301 99.9762 12.908L101.264 8.06837C102.083 5.05307 101.312 3.97913 98.6682 3.97913M94.8268 11.483C94.455 12.8873 94.3587 12.8185 93.3054 12.8185H92.018C91.1781 12.8185 90.8684 12.6808 91.1024 11.8822L91.4053 10.6913C91.6119 9.89269 91.9905 9.75501 92.8304 9.75501H95.288L94.8199 11.483H94.8268Z" fill="#002857"></path>
<path d="M109.752 7.36617C109.614 7.08392 109.538 6.76036 109.821 6.45745C110.075 6.15455 110.22 6.12701 110.778 6.12701H113.208L113.793 3.97913H106.358C105.353 3.97913 104.554 4.14435 103.811 5.03241C103.04 5.94113 102.971 7.07015 103.363 7.97887L105.002 11.4898C105.167 11.8409 105.098 12.192 104.857 12.4467C104.671 12.6808 104.341 12.8185 103.948 12.8185H101.443L100.857 14.9664H108.692C109.676 14.9664 110.468 14.7323 111.122 13.8236C112.106 12.4467 111.494 11.2076 111.287 10.7601L109.745 7.36617H109.752Z" fill="#002857"></path>
<path d="M126.935 3.97913H118.536C116.058 3.97913 115.073 5.00488 114.468 7.29733L113.297 11.6482C112.691 13.9406 113.111 14.9664 115.59 14.9664H125.131L125.716 12.8185H119.775C118.887 12.8185 118.584 12.488 118.818 11.6964L119.032 10.9047H128.27L129.227 7.30421C129.833 5.01176 129.413 3.98601 126.935 3.98601M123.92 7.01508L123.451 8.74302H119.596L120.064 7.01508C120.23 6.38173 120.484 6.12701 121.09 6.12701H123.362C123.968 6.12701 124.085 6.38173 123.926 7.01508" fill="#002857"></path>
<path d="M38.4723 22.4977C39.9249 22.0021 42.004 20.9832 42.8576 20.577C43.6631 20.1915 45.5425 19.3034 45.5425 19.3034C45.5425 19.3034 44.9022 18.7596 42.6373 19.806L37.1299 18.9799L36.3313 19.2415L40.6822 20.7422H40.6547C39.7115 21.1622 38.7615 21.5546 37.9491 21.8437L36.3727 21.1002L35.161 21.1278L36.7513 22.1329C34.0182 22.8488 31.9323 22.8144 30.0323 22.78C21.7299 22.6216 15.059 19.5788 15.1417 15.4483C15.1623 14.4156 15.6098 13.0044 16.3877 12.1232C14.8732 13.2591 13.9094 14.6221 13.9438 16.1023C14.0677 20.8937 21.8125 23.7782 29.6743 23.8746C30.6381 23.8883 31.5261 23.8608 32.3316 23.7988C32.3316 23.7988 33.5639 23.7575 34.9063 23.4891C36.7926 23.1104 37.5705 22.8006 38.4655 22.4977" fill="#0C70E8"></path>
<path d="M59.3592 19.9988H58.244V25.4167H59.3592V19.9988Z" fill="#002857"></path>
<path d="M61.2523 21.3893L61.2868 21.8574C61.5759 21.4994 61.9614 21.3204 62.4433 21.3204C62.8701 21.3204 63.1868 21.4444 63.3933 21.6991C63.5999 21.9469 63.71 22.3255 63.71 22.8212V25.4234H62.6361V22.8487C62.6361 22.6216 62.5879 22.4563 62.4915 22.3531C62.3882 22.2498 62.223 22.2016 61.9958 22.2016C61.6929 22.2016 61.4658 22.3324 61.3143 22.5871V25.4234H60.2404V21.3962H61.2523V21.3893Z" fill="#002857"></path>
<path d="M65.734 20.398V21.3893H66.4224V22.1741H65.734V24.1843C65.734 24.3358 65.7615 24.439 65.8166 24.501C65.8717 24.563 65.9818 24.5974 66.147 24.5974C66.2641 24.5974 66.3742 24.5905 66.4637 24.5698V25.3822C66.2503 25.4441 66.0369 25.4786 65.8097 25.4786C65.0525 25.4786 64.6738 25.0999 64.66 24.3358V22.1672H64.0749V21.3824H64.66V20.3911H65.734V20.398Z" fill="#002857"></path>
<path d="M68.7149 25.4855C68.1228 25.4855 67.6409 25.3065 67.2761 24.9416C66.9043 24.5767 66.7184 24.0948 66.7184 23.4959V23.3926C66.7184 22.9865 66.7942 22.6285 66.9525 22.3118C67.1108 21.9951 67.3311 21.7473 67.6134 21.5752C67.8956 21.4031 68.2261 21.3136 68.591 21.3136C69.1417 21.3136 69.5754 21.4857 69.8921 21.8368C70.2088 22.181 70.3671 22.6767 70.3671 23.31V23.7506H67.8062C67.8406 24.0122 67.9438 24.2256 68.1228 24.384C68.2949 24.5423 68.5221 24.6249 68.7837 24.6249C69.1968 24.6249 69.5203 24.4735 69.7544 24.1774L70.2845 24.7695C70.1261 24.9967 69.9058 25.1757 69.6305 25.2996C69.3551 25.4304 69.0522 25.4923 68.7149 25.4923M68.591 22.181C68.3775 22.181 68.2054 22.2567 68.0746 22.4013C67.9438 22.5459 67.8543 22.7524 67.8199 23.0209H69.3138V22.9383C69.3138 22.6973 69.245 22.5115 69.121 22.3807C68.9971 22.2499 68.8181 22.181 68.591 22.181Z" fill="#002857"></path>
<path d="M70.7733 23.372C70.7733 22.7524 70.9179 22.2567 71.2139 21.8781C71.5099 21.4995 71.9023 21.3136 72.4049 21.3136C72.8455 21.3136 73.1897 21.4651 73.4306 21.768L73.4788 21.3893H74.4564V25.2789C74.4564 25.63 74.3738 25.9398 74.2154 26.1945C74.0571 26.4561 73.8299 26.6558 73.5408 26.7866C73.2516 26.9243 72.9143 26.9931 72.5219 26.9931C72.2259 26.9931 71.9368 26.9311 71.6614 26.8141C71.3791 26.6971 71.1657 26.5456 71.028 26.3597L71.503 25.7057C71.7715 26.0087 72.0951 26.1532 72.4806 26.1532C72.7629 26.1532 72.99 26.0775 73.1484 25.926C73.3067 25.7746 73.3893 25.5543 73.3893 25.2789V25.0655C73.1415 25.3478 72.8179 25.4855 72.4118 25.4855C71.9299 25.4855 71.5375 25.2996 71.2414 24.9209C70.9454 24.5423 70.794 24.0398 70.794 23.4202V23.372H70.7733ZM71.8473 23.4477C71.8473 23.8126 71.923 24.1017 72.0676 24.3082C72.2121 24.5148 72.4118 24.618 72.6734 24.618C73.0038 24.618 73.2379 24.4941 73.3756 24.2463V22.5528C73.231 22.3049 72.9969 22.181 72.6802 22.181C72.4186 22.181 72.219 22.2843 72.0744 22.4977C71.9299 22.7111 71.8541 23.0209 71.8541 23.4408" fill="#002857"></path>
<path d="M77.4716 22.3944C77.327 22.3738 77.1962 22.3669 77.0861 22.3669C76.6799 22.3669 76.4114 22.5046 76.2875 22.7799V25.4097H75.2136V21.3824H76.2255L76.2531 21.8643C76.4665 21.4926 76.7694 21.3136 77.148 21.3136C77.2651 21.3136 77.3752 21.3274 77.4854 21.3618L77.4716 22.3944Z" fill="#002857"></path>
<path d="M80.2597 25.4098C80.2116 25.3134 80.1771 25.1895 80.1496 25.0518C79.888 25.3409 79.5507 25.4855 79.1376 25.4855C78.7452 25.4855 78.4148 25.3685 78.1601 25.1413C77.8985 24.9141 77.7745 24.625 77.7745 24.2808C77.7745 23.8539 77.9329 23.5304 78.2496 23.2963C78.5662 23.0691 79.0206 22.9521 79.6195 22.9521H80.1152V22.718C80.1152 22.5322 80.067 22.3807 79.9706 22.2706C79.8742 22.1604 79.7228 22.1053 79.5162 22.1053C79.3373 22.1053 79.1927 22.1466 79.0894 22.2361C78.9862 22.3256 78.938 22.4427 78.938 22.5941H77.864C77.864 22.3601 77.9329 22.1466 78.0774 21.947C78.222 21.7474 78.4217 21.5959 78.6901 21.4789C78.9517 21.3687 79.2478 21.3068 79.5782 21.3068C80.0739 21.3068 80.4663 21.4307 80.7623 21.6785C81.0514 21.9263 81.2029 22.2774 81.2029 22.7318V24.4735C81.2029 24.859 81.258 25.1482 81.3612 25.3409V25.4029H80.2735L80.2597 25.4098ZM79.3717 24.6663C79.53 24.6663 79.6746 24.6319 79.8123 24.563C79.9431 24.4942 80.0463 24.3978 80.1083 24.2808V23.5854H79.709C79.172 23.5854 78.8829 23.7713 78.8485 24.1431V24.205C78.8485 24.3427 78.8898 24.4529 78.9862 24.5355C79.0825 24.625 79.2065 24.6663 79.3717 24.6663Z" fill="#002857"></path>
<path d="M83.2062 20.398V21.3893H83.8946V22.1741H83.2062V24.1843C83.2062 24.3358 83.2338 24.439 83.2888 24.501C83.3439 24.563 83.4541 24.5974 83.6193 24.5974C83.7363 24.5974 83.8465 24.5905 83.9359 24.5698V25.3822C83.7225 25.4441 83.5091 25.4786 83.2819 25.4786C82.5247 25.4786 82.146 25.0999 82.1323 24.3358V22.1672H81.5471V21.3824H82.1323V20.3911H83.2062V20.398Z" fill="#002857"></path>
<path d="M84.3765 20.3497C84.3765 20.1914 84.4316 20.0537 84.5349 19.9505C84.645 19.8472 84.7896 19.7921 84.9755 19.7921C85.1613 19.7921 85.3059 19.8472 85.416 19.9505C85.5262 20.0537 85.5813 20.1845 85.5813 20.3497C85.5813 20.515 85.5262 20.6458 85.416 20.749C85.3059 20.8523 85.1613 20.9074 84.9823 20.9074C84.8033 20.9074 84.6588 20.8592 84.5417 20.749C84.4316 20.6458 84.3765 20.5081 84.3765 20.3497ZM85.5124 25.4097H84.4316V21.3824H85.5124V25.4097Z" fill="#002857"></path>
<path d="M86.1182 23.3651C86.1182 22.9658 86.1939 22.6078 86.3454 22.298C86.4968 21.9882 86.724 21.7473 87.0063 21.5752C87.2954 21.403 87.6327 21.3204 88.0114 21.3204C88.5552 21.3204 88.9958 21.4857 89.34 21.8161C89.6842 22.1465 89.877 22.6009 89.9114 23.1723V23.4477C89.9183 24.0672 89.7462 24.5629 89.402 24.9347C89.0578 25.3064 88.5965 25.4923 88.0114 25.4923C87.4262 25.4923 86.965 25.3064 86.6207 24.9347C86.2765 24.5629 86.1044 24.0535 86.1044 23.4201V23.3719L86.1182 23.3651ZM87.1921 23.4408C87.1921 23.8263 87.261 24.1154 87.4056 24.3151C87.5501 24.5147 87.7566 24.618 88.0251 24.618C88.2936 24.618 88.4864 24.5147 88.6378 24.3151C88.7824 24.1154 88.8581 23.7988 88.8581 23.3582C88.8581 22.9864 88.7824 22.6904 88.6378 22.4839C88.4933 22.2773 88.2867 22.1741 88.0182 22.1741C87.7498 22.1741 87.5501 22.2773 87.4056 22.4839C87.261 22.6904 87.1921 23.0071 87.1921 23.4339" fill="#002857"></path>
<path d="M91.5154 21.3893L91.5499 21.8574C91.839 21.4994 92.2245 21.3204 92.7064 21.3204C93.1332 21.3204 93.4499 21.4444 93.6564 21.6991C93.863 21.9469 93.9731 22.3255 93.9731 22.8212V25.4234H92.8992V22.8487C92.8992 22.6216 92.851 22.4563 92.7477 22.3531C92.6514 22.2498 92.4861 22.2016 92.2521 22.2016C91.9492 22.2016 91.722 22.3324 91.5705 22.5871V25.4234H90.4966V21.3962H91.5086L91.5154 21.3893Z" fill="#002857"></path>
<path d="M97.7251 23.5029V25.4098H96.6099V19.9919H98.7233C99.1295 19.9919 99.4875 20.0677 99.7973 20.2122C100.107 20.3637 100.341 20.5702 100.506 20.8456C100.672 21.121 100.754 21.4307 100.754 21.7818C100.754 22.3119 100.575 22.7319 100.21 23.0348C99.8455 23.3446 99.3429 23.496 98.7027 23.496H97.7251V23.5029ZM97.7251 22.6011H98.7233C99.0194 22.6011 99.2396 22.5322 99.398 22.3945C99.5494 22.2569 99.6321 22.0572 99.6321 21.7956C99.6321 21.534 99.5563 21.3137 99.398 21.1554C99.2396 20.9902 99.0262 20.9075 98.7509 20.9007H97.732V22.6011H97.7251Z" fill="#002857"></path>
<path d="M102.406 19.7026H101.325V25.4166H102.406V19.7026Z" fill="#002857"></path>
<path d="M105.518 25.4098C105.47 25.3134 105.435 25.1895 105.408 25.0518C105.146 25.3409 104.809 25.4855 104.396 25.4855C104.003 25.4855 103.673 25.3685 103.418 25.1413C103.157 24.9141 103.033 24.625 103.033 24.2808C103.033 23.8539 103.191 23.5304 103.508 23.2963C103.824 23.0691 104.279 22.9521 104.878 22.9521H105.373V22.718C105.373 22.5322 105.325 22.3807 105.229 22.2706C105.132 22.1604 104.981 22.1053 104.774 22.1053C104.595 22.1053 104.451 22.1466 104.348 22.2361C104.244 22.3256 104.196 22.4427 104.196 22.5941H103.122C103.122 22.3601 103.191 22.1466 103.336 21.947C103.48 21.7474 103.687 21.5959 103.948 21.4789C104.21 21.3687 104.506 21.3068 104.83 21.3068C105.325 21.3068 105.718 21.4307 106.014 21.6785C106.303 21.9263 106.454 22.2774 106.454 22.7318V24.4735C106.454 24.859 106.509 25.1482 106.613 25.3409V25.4029H105.525L105.518 25.4098ZM104.63 24.6663C104.788 24.6663 104.933 24.6319 105.071 24.563C105.201 24.4942 105.305 24.3978 105.367 24.2808V23.5854H104.967C104.43 23.5854 104.141 23.7713 104.107 24.1431V24.205C104.107 24.3427 104.148 24.4529 104.244 24.5355C104.341 24.625 104.465 24.6663 104.63 24.6663Z" fill="#002857"></path>
<path d="M108.464 20.398V21.3893H109.153V22.1741H108.464V24.1843C108.464 24.3358 108.492 24.439 108.547 24.501C108.602 24.563 108.712 24.5974 108.878 24.5974C108.995 24.5974 109.105 24.5905 109.194 24.5698V25.3822C108.981 25.4441 108.767 25.4786 108.54 25.4786C107.79 25.4786 107.404 25.0999 107.391 24.3358V22.1672H106.805V21.3824H107.391V20.3911H108.464V20.398Z" fill="#002857"></path>
<path d="M110.062 25.4098V22.1742H109.463V21.3894H110.062V21.0452C110.062 20.5977 110.192 20.2466 110.447 19.9919C110.709 19.744 111.067 19.6201 111.535 19.6201C111.686 19.6201 111.865 19.6408 112.079 19.6958L112.065 20.5288C111.976 20.5082 111.865 20.4944 111.735 20.4944C111.328 20.4944 111.129 20.6803 111.129 21.0658V21.3894H111.927V22.1742H111.129V25.4098H110.048H110.062Z" fill="#002857"></path>
<path d="M112.182 23.3651C112.182 22.9658 112.258 22.6078 112.409 22.298C112.561 21.9882 112.788 21.7473 113.07 21.5752C113.359 21.403 113.696 21.3204 114.075 21.3204C114.619 21.3204 115.06 21.4857 115.404 21.8161C115.748 22.1465 115.941 22.6009 115.975 23.1723V23.4477C115.982 24.0672 115.81 24.5629 115.466 24.9347C115.121 25.3064 114.66 25.4923 114.075 25.4923C113.49 25.4923 113.029 25.3064 112.684 24.9347C112.34 24.5629 112.168 24.0535 112.168 23.4201V23.3719L112.182 23.3651ZM113.256 23.4408C113.256 23.8263 113.325 24.1154 113.469 24.3151C113.614 24.5147 113.82 24.618 114.089 24.618C114.357 24.618 114.55 24.5147 114.702 24.3151C114.846 24.1154 114.922 23.7988 114.922 23.3582C114.922 22.9864 114.846 22.6904 114.702 22.4839C114.557 22.2773 114.35 22.1741 114.082 22.1741C113.813 22.1741 113.614 22.2773 113.469 22.4839C113.325 22.6904 113.256 23.0071 113.256 23.4339" fill="#002857"></path>
<path d="M118.846 22.3944C118.701 22.3738 118.571 22.3669 118.46 22.3669C118.054 22.3669 117.786 22.5046 117.662 22.7799V25.4097H116.588V21.3824H117.6L117.627 21.8643C117.841 21.4926 118.144 21.3136 118.522 21.3136C118.639 21.3136 118.756 21.3274 118.86 21.3618L118.846 22.3944Z" fill="#002857"></path>
<path d="M120.285 21.3893L120.319 21.8368C120.601 21.4857 120.987 21.3136 121.476 21.3136C121.992 21.3136 122.35 21.5201 122.543 21.9263C122.825 21.5201 123.231 21.3136 123.754 21.3136C124.188 21.3136 124.512 21.4375 124.732 21.6922C124.945 21.9469 125.049 22.3256 125.049 22.8419V25.4097H123.968V22.8419C123.968 22.6147 123.927 22.4495 123.837 22.3394C123.748 22.2361 123.589 22.181 123.362 22.181C123.038 22.181 122.818 22.3325 122.694 22.6423V25.4028H121.62V22.8419C121.62 22.6078 121.572 22.4426 121.483 22.3394C121.393 22.2361 121.235 22.181 121.014 22.181C120.712 22.181 120.491 22.3049 120.354 22.5596V25.4028H119.28V21.3756H120.285V21.3893Z" fill="#002857"></path>
</g>
<defs>
<clipPath id="clip0_10633_35633">
<rect width="134" height="30" fill="white" transform="translate(0.794922)"></rect>
</clipPath>
</defs>
</svg>