<svg width="135" height="30" viewBox="0 0 135 30" fill="none" xmlns="http://www.w3.org/2000/svg">
<g clip-path="url(#clip0_10633_35575)">
<path d="M13.7776 10.4498H7.99215L6.77416 14.9965H0.794922L4.80184 0H16.9403C18.1582 0 19.9645 0.442906 19.9645 2.45675C19.9645 2.80969 19.8953 3.20415 19.7776 3.65398L18.9818 6.609C18.1859 9.58477 15.7499 10.4498 13.7776 10.4498ZM13.8191 3.75086C13.8883 3.49481 13.9368 3.21107 13.9368 3.02422C13.9368 2.58131 13.7015 2.46367 13.1133 2.46367H10.1167L8.66343 7.87543H11.5008C12.3174 7.87543 12.7672 7.64014 13.0441 6.58824L13.8191 3.75086Z" fill="#0C70E8"></path>
<path d="M31.2101 14.9966H18.2274L22.2343 6.10352e-05H34.8364C36.6911 6.10352e-05 37.4869 0.678262 37.4869 1.99314C37.4869 2.39452 37.39 2.85819 37.2724 3.34954L36.9195 4.70594C36.6842 5.571 35.9575 6.55369 35.397 6.78899C35.7707 7.07273 36.1236 7.46719 36.1236 8.19383C36.1236 8.42913 36.0752 8.66442 36.006 8.96892L35.2793 11.661C34.7395 13.6748 33.4731 14.9897 31.2032 14.9897M29.826 9.58484C29.8745 9.41875 29.8952 9.28034 29.8952 9.16269C29.8952 8.6921 29.6115 8.41529 28.9125 8.41529H25.9852L24.8849 12.5122H27.7637C28.6565 12.5122 29.1202 12.1869 29.3347 11.3911L29.826 9.58484ZM31.2586 3.37722C31.2793 3.28034 31.307 3.12117 31.307 3.02428C31.307 2.65058 31.0717 2.48449 30.6011 2.48449H27.5769L26.6426 6.02082H29.6392C30.1997 6.02082 30.6219 5.71632 30.788 5.08657L31.2586 3.37722Z" fill="#0C70E8"></path>
<path d="M36.1098 14.9966L40.1167 6.10352e-05H46.3036L42.9472 12.5122H49.0441L48.3866 14.9966H36.1098Z" fill="#002857"></path>
<path d="M49.397 14.9966L52.352 3.98622H57.8815L54.9264 14.9966H49.397ZM52.6773 2.90664L53.4524 6.10352e-05H58.8849L58.1098 2.90664H52.6773Z" fill="#002857"></path>
<path d="M66.5734 6.13843C65.6392 6.13843 65.4246 6.51213 65.4246 6.93428C65.4246 7.10037 65.4939 7.28722 65.5423 7.37719L67.0925 10.7751C67.3762 11.3633 67.4662 11.737 67.4662 12.2284C67.4662 12.7197 67.3485 13.2595 66.9264 13.8478C66.2689 14.7613 65.4731 14.9966 64.4904 14.9966H56.6426L57.2309 12.8443H59.7361C60.5319 12.8443 60.8849 12.3045 60.8849 11.8824C60.8849 11.7647 60.8364 11.5986 60.788 11.5087L59.1478 7.9931C58.9817 7.64016 58.9125 7.26646 58.9125 6.872C58.9125 6.24224 59.1201 5.60556 59.5907 5.04501C60.3381 4.15227 61.134 3.9931 62.1444 3.9931H69.5977L69.0094 6.14535H66.5734V6.13843Z" fill="#002857"></path>
<path d="M71.3762 14.9966C69.9437 14.9966 68.8018 14.5536 68.8018 12.9135C68.8018 12.5398 68.871 12.0692 69.0094 11.5571L71.6807 1.59863H77.2101L76.5804 3.98618H80.0475L79.4593 6.14535H75.9921L74.4489 11.9585C74.4004 12.1453 74.352 12.3114 74.352 12.4291C74.352 12.7543 74.5873 12.8512 75.3139 12.8512H77.9852L77.397 15.0035H71.3762V14.9966Z" fill="#002857"></path>
<path d="M85.39 10.9204L85.1824 11.7163C85.134 11.8824 85.1132 12.0208 85.1132 12.1592C85.1132 12.6298 85.4385 12.8374 86.1444 12.8374H92.0959L91.5077 14.9897H81.9506C80.1236 14.9897 79.397 14.4291 79.397 13.2111C79.397 12.789 79.4939 12.2699 79.653 11.6609L80.8226 7.30107C81.4316 5.00349 82.4143 3.97235 84.8987 3.97235H93.3139C95.1409 3.97235 95.8676 4.53291 95.8676 5.7509C95.8676 6.17304 95.7707 6.68515 95.6115 7.29415L94.6496 10.8997H85.397L85.39 10.9204ZM90.2828 7.03117C90.3312 6.86508 90.352 6.72668 90.352 6.60903C90.352 6.28377 90.1651 6.13844 89.7222 6.13844H87.4523C86.8433 6.13844 86.5873 6.3945 86.4212 7.03117L85.9506 8.7682H89.8191L90.2897 7.03117H90.2828Z" fill="#002857"></path>
<path d="M104.227 6.13845C103.549 6.13845 103.266 6.37375 103.079 7.05195L100.947 14.9966H94.9956L96.871 7.99313C97.5285 5.53638 99.0233 3.98621 101.625 3.98621H107.695L107.106 6.13845H104.227Z" fill="#002857"></path>
<path d="M38.6426 22.609C40.1029 22.1107 42.1928 21.0865 43.051 20.6782C43.8606 20.2907 45.7499 19.3979 45.7499 19.3979C45.7499 19.3979 45.1063 18.8512 42.8295 19.9031L37.2932 19.0727L36.4904 19.3356L40.8641 20.8443H40.8364C39.8883 21.2664 38.9333 21.6609 38.1167 21.9516L36.5319 21.2042L35.3139 21.2318L36.9125 22.2422C34.1651 22.9619 32.0683 22.9273 30.1582 22.8927C21.8122 22.7336 15.1063 19.6747 15.1894 15.5225C15.2101 14.4844 15.66 13.0657 16.442 12.1799C14.9195 13.3218 13.9506 14.692 13.9852 16.1799C14.1098 20.9965 21.8952 23.8962 29.7984 23.9931C30.7672 24.0069 31.66 23.9792 32.4696 23.917C32.4696 23.917 33.7084 23.8754 35.0579 23.6055C36.9541 23.2249 37.7361 22.9135 38.6357 22.609" fill="#0C70E8"></path>
</g>
<defs>
<clipPath id="clip0_10633_35575">
<rect width="134" height="30" fill="white" transform="translate(0.794922)"></rect>
</clipPath>
</defs>
</svg>