<svg width="162" height="30" viewBox="0 0 162 30" fill="none" xmlns="http://www.w3.org/2000/svg">
<g clip-path="url(#clip0_1019_33137)">
<path d="M22.7992 8.28501L23.7972 4.58267C24.8269 0.764365 22.0348 0 20.2425 0H5.02372L0 18.8034H7.49078L9.01951 13.1031H16.2766C18.7436 13.1031 21.8011 12.0172 22.7992 8.28501ZM16.3346 4.7004L15.3646 8.25514C15.0114 9.57828 14.4526 9.87173 13.4265 9.87173H9.86997L11.6921 3.08557H15.4525C16.4804 3.08557 16.6878 3.37902 16.3346 4.70216" fill="#0C70E8"></path>
<path d="M35.0801 8.57985C34.9325 9.22648 34.9325 9.13862 34.8446 9.5498H27.3521C24.2384 9.5498 23.0049 10.8431 22.2405 13.7213L21.977 14.6315C21.2126 17.5097 21.7415 18.803 24.857 18.803H39.2815C39.5749 17.7751 39.6048 17.6292 39.9861 16.2182L41.6027 10.1367C42.6306 6.3465 41.6607 4.99524 38.3414 4.99524H27.6473L26.9128 7.69775H34.1418C35.11 7.69775 35.2576 7.96133 35.0819 8.57985M33.5233 14.4259C33.0541 16.1884 32.9364 16.1005 31.6132 16.1005H29.9966C28.9388 16.1005 28.5575 15.9248 28.851 14.925L29.2323 13.4261C29.4959 12.428 29.9668 12.2523 31.0246 12.2523H34.1102L33.5233 14.4259Z" fill="#0C70E8"></path>
<path d="M48.8018 18.803C49.1831 17.3639 49.155 17.5396 49.6541 15.6296L51.4762 8.84342C51.7117 7.9912 52.0631 7.69775 52.9153 7.69775H56.5298C56.7354 6.96326 57.0886 5.66999 57.2626 4.99524H49.6541C46.3928 4.99524 44.5126 6.93339 43.6885 10.019L42.1896 15.6313C41.6906 17.5414 41.7187 17.4236 41.3374 18.8048H48.8001L48.8018 18.803Z" fill="#0C70E8"></path>
<path d="M67.2747 16.1008H64.3719C63.1384 16.1008 63.0505 15.8653 63.2842 14.9832L65.2241 7.69626H69.5731L70.3076 4.99375H65.9586L66.7528 1.99603H59.8191L56.4699 14.4824C55.5597 17.9194 57.2343 18.8015 59.4378 18.8015H66.9883L67.7228 16.099H67.2765L67.2747 16.1008Z" fill="#0C70E8"></path>
<path d="M79.8858 9.2546C79.7084 8.90141 79.6205 8.49199 79.9737 8.10893C80.297 7.72762 80.4727 7.69775 81.1773 7.69775H84.233L84.9675 4.99524H75.6247C74.3613 4.99524 73.3615 5.20083 72.4232 6.31662C71.4532 7.46229 71.3654 8.87329 71.8644 10.019L73.922 14.4259C74.1276 14.867 74.0398 15.308 73.7445 15.6313C73.5108 15.9248 73.0979 16.1023 72.5989 16.1023H69.4553L68.7208 18.8048H78.5627C79.7962 18.8048 80.7943 18.5113 81.6184 17.3656C82.8519 15.6331 82.0875 14.0745 81.824 13.5175L79.8858 9.25635V9.2546Z" fill="#0C70E8"></path>
<path d="M105.272 8.52035C105.976 8.2269 106.886 6.99338 107.182 5.90569L107.623 4.20125C108.357 1.43899 107.593 -0.00012207 104.567 -0.00012207H88.7614L83.7359 18.8033H100.012C102.863 18.8033 104.449 17.1585 105.126 14.6318L106.038 11.2545C106.449 9.69765 105.89 8.99127 105.273 8.52211M98.2782 12.0171C98.2782 12.0171 98.0427 12.8992 97.6614 14.2803C97.3978 15.2784 96.8092 15.6896 95.6934 15.6896H92.0789L93.46 10.5481H97.1325C98.2483 10.5481 98.5136 11.135 98.2782 12.0171ZM100.072 4.23112C99.6593 5.78796 99.4836 6.37661 99.4836 6.37661C99.278 7.16909 98.7491 7.55215 98.0427 7.55215H94.2824L95.4579 3.11532H99.2481C100.011 3.11532 100.276 3.43864 100.07 4.23288" fill="#002857"></path>
<path d="M122.957 4.99529H112.263L111.529 7.6978H118.756C119.724 7.6978 119.874 7.96137 119.696 8.5799C119.549 9.22653 119.549 9.13691 119.461 9.54809H111.97C108.856 9.54809 107.621 10.8414 106.858 13.7213L106.593 14.6316C105.83 17.5098 106.358 18.8031 109.473 18.8031H123.899C124.193 17.7751 124.223 17.6275 124.604 16.2165L126.22 10.135C127.248 6.34479 126.28 4.99353 122.959 4.99353M118.139 14.426C117.67 16.1884 117.552 16.1005 116.229 16.1005H114.613C113.555 16.1005 113.174 15.9248 113.467 14.925L113.85 13.4261C114.114 12.4263 114.585 12.2506 115.642 12.2506H118.728L118.139 14.426Z" fill="#002857"></path>
<path d="M136.885 9.2546C136.709 8.90141 136.621 8.49199 136.973 8.10893C137.296 7.72762 137.472 7.69775 138.178 7.69775H141.234L141.968 4.99524H132.625C131.362 4.99524 130.362 5.20083 129.422 6.31662C128.454 7.46229 128.364 8.87329 128.863 10.019L130.921 14.4259C131.127 14.867 131.039 15.308 130.743 15.6313C130.51 15.9248 130.097 16.1023 129.598 16.1023H126.453L125.718 18.8048H135.562C136.795 18.8048 137.793 18.5113 138.616 17.3656C139.851 15.6331 139.086 14.0745 138.821 13.5175L136.883 9.25635L136.885 9.2546Z" fill="#002857"></path>
<path d="M158.48 4.99524H147.934C144.818 4.99524 143.585 6.28675 142.822 9.16674L141.353 14.6315C140.589 17.5115 141.12 18.803 144.233 18.803H156.221L156.955 16.1005H149.492C148.375 16.1005 147.994 15.6893 148.287 14.6913L148.552 13.6932H160.158L161.362 9.1685C162.125 6.28851 161.596 4.997 158.482 4.997M154.69 8.81355L154.101 10.9889H149.253L149.842 8.81355C150.048 8.02107 150.371 7.69775 151.134 7.69775H153.984C154.748 7.69775 154.894 8.02107 154.69 8.81355Z" fill="#002857"></path>
<path d="M47.3344 28.2656C49.1584 27.6435 51.7713 26.3608 52.8431 25.8495C53.857 25.368 56.2169 24.2487 56.2169 24.2487C56.2169 24.2487 55.4139 23.5616 52.5673 24.883L45.6458 23.8481L44.639 24.1784L50.1037 26.0621L50.0703 26.0726C48.8878 26.5927 47.6876 27.0847 46.6667 27.4415L44.6847 26.5102L43.1647 26.5435L45.1661 27.8087C41.7344 28.7031 39.1109 28.668 36.7265 28.6223C26.2995 28.4255 17.9178 24.5984 18.0162 19.406C18.0408 18.1057 18.6031 16.3344 19.5836 15.2292C17.6789 16.6525 16.4699 18.3675 16.5174 20.2301C16.6738 26.2483 26.4014 29.8734 36.2854 29.9964C37.4996 30.0122 38.6101 29.977 39.6258 29.905C39.6258 29.905 41.1703 29.8505 42.859 29.5131C45.2259 29.0405 46.2028 28.6504 47.3327 28.2638" fill="#0C70E8"></path>
</g>
<defs>
<clipPath id="clip0_1019_33137">
<rect width="161.669" height="30" fill="white"></rect>
</clipPath>
</defs>
</svg>