<svg width="135" height="30" viewBox="0 0 135 30" fill="none" xmlns="http://www.w3.org/2000/svg">
<g clip-path="url(#clip0_10633_35637)">
<path d="M13.7765 10.4516H7.99077L6.77418 15H0.794922L4.80414 0H16.9424C18.159 0 19.9562 0.442396 19.9562 2.46083C19.9562 2.81336 19.8871 3.20737 19.7696 3.65668L18.9746 6.6083C18.1797 9.58065 15.7396 10.4516 13.7696 10.4516M13.8249 3.74654C13.894 3.49078 13.9424 3.20737 13.9424 3.02074C13.9424 2.57834 13.7074 2.46083 13.1198 2.46083H10.1198L8.66819 7.87327H11.5023C12.3249 7.87327 12.7673 7.63825 13.0507 6.58756L13.8249 3.75346V3.74654Z" fill="#0C70E8"></path>
<path d="M31.2097 14.9931H18.2281L22.2373 0H34.8387C36.6912 0 37.4862 0.677419 37.4862 1.99078C37.4862 2.39171 37.3894 2.85484 37.2719 3.35253L36.9193 4.71429C36.6843 5.57834 35.9585 6.56682 35.3986 6.80184C35.7719 7.08525 36.1244 7.47926 36.1244 8.20507C36.1244 8.44009 36.076 8.67512 36.0069 8.97926L35.2811 11.6751C34.7419 13.6866 33.4769 15 31.2027 15M29.8272 9.58064C29.8756 9.41475 29.8963 9.2765 29.8963 9.15899C29.8963 8.68894 29.6129 8.41244 28.9147 8.41244H25.9838L24.8848 12.5115H27.7673C28.659 12.5115 29.129 12.1797 29.3364 11.3848L29.8272 9.58064ZM31.258 3.37327C31.2788 3.2765 31.3064 3.11751 31.3064 3.02074C31.3064 2.64747 31.0714 2.48157 30.6014 2.48157H27.5806L26.6405 6.02074H29.6405C30.2004 6.02074 30.6221 5.71659 30.788 5.08065L31.258 3.37327Z" fill="#0C70E8"></path>
<path d="M36.1106 14.9931L40.1129 0H46.2995L42.947 12.5115H49.0438L48.3871 14.9931H36.1106Z" fill="#002857"></path>
<path d="M60.947 14.9931H52.3272C50.5023 14.9931 49.7765 14.4332 49.7765 13.2097C49.7765 12.788 49.8733 12.2696 50.0323 11.6613L51.2074 7.30645C51.8157 5.01152 52.7972 3.98157 55.2857 3.98157H63.9055C65.7304 3.98157 66.4562 4.54148 66.4562 5.76498C66.4562 6.18664 66.3594 6.70507 66.2005 7.31336L65.0322 11.6682C64.424 13.9631 63.4424 14.9931 60.9539 14.9931M60.7327 7.02995C60.7811 6.86406 60.8018 6.72581 60.8018 6.6083C60.8018 6.28341 60.6152 6.13825 60.1244 6.13825H57.8295C57.2212 6.13825 56.9654 6.39401 56.7995 7.02995L55.4862 11.9516C55.4378 12.1175 55.417 12.2558 55.417 12.3733C55.417 12.6982 55.6037 12.8433 56.053 12.8433H58.3479C59.0046 12.8433 59.2604 12.5876 59.4263 11.9516L60.7396 7.02995H60.7327Z" fill="#002857"></path>
<path d="M69.0967 14.9931C67.1267 14.9931 66.3525 14.1498 66.3525 12.8364C66.3525 12.4631 66.4216 12.0138 66.5391 11.5714L67.6658 7.40323C68.205 5.39171 69.5184 3.98157 72.0483 3.98157H79.6382L79.0506 6.13825H75.2557C74.364 6.13825 73.894 6.46313 73.6866 7.26498L72.5184 11.7166C72.47 11.8825 72.4493 12.0415 72.4493 12.159C72.4493 12.629 72.7741 12.8364 73.4792 12.8364H77.3709L76.7834 14.9931H69.0967Z" fill="#002857"></path>
<path d="M81.2143 14.9931C79.3894 14.9931 78.6636 14.4332 78.6636 13.2097C78.6636 12.788 78.7603 12.2696 78.9193 11.6613L79.1267 10.9355C79.735 8.64057 80.7166 7.61062 83.205 7.61062H89.1774L89.364 6.83642C89.3848 6.71891 89.4124 6.64979 89.4124 6.55301C89.4124 6.2696 89.2258 6.13135 88.6175 6.13135H82.8525L83.4401 3.97467H91.97C93.9608 3.97467 94.8733 4.58297 94.8733 6.15209C94.8733 6.69126 94.7765 7.3272 94.5691 8.07375L92.7166 14.9862H81.2143V14.9931ZM88.5968 9.7673H86.1359C85.2926 9.7673 84.9193 9.90555 84.705 10.7074L84.4009 11.9032C84.3525 12.0691 84.3318 12.2074 84.3318 12.3249C84.3318 12.7466 84.6567 12.8433 85.3133 12.8433H86.8133C87.7258 12.8433 87.8226 12.7051 88.1267 11.5092L88.5968 9.77421V9.7673Z" fill="#002857"></path>
<path d="M97.5968 14.9931C96.1659 14.9931 95.0184 14.5507 95.0184 12.9055C95.0184 12.5322 95.0876 12.0622 95.2327 11.5438L97.9009 1.58984H103.431L102.795 3.98155H106.265L105.677 6.13823H102.207L100.659 11.9516C100.611 12.1382 100.562 12.3041 100.562 12.4216C100.562 12.7465 100.797 12.8433 101.523 12.8433H104.191L103.604 15H97.583L97.5968 14.9931Z" fill="#002857"></path>
<path d="M116.786 14.9931H108.166C106.341 14.9931 105.615 14.4332 105.615 13.2097C105.615 12.788 105.712 12.2696 105.871 11.6613L107.046 7.30645C107.654 5.01152 108.636 3.98157 111.124 3.98157H119.744C121.569 3.98157 122.295 4.54148 122.295 5.76498C122.295 6.18664 122.198 6.70507 122.039 7.31336L120.871 11.6682C120.263 13.9631 119.281 14.9931 116.793 14.9931M116.571 7.02995C116.62 6.86406 116.641 6.72581 116.641 6.6083C116.641 6.28341 116.454 6.13825 115.963 6.13825H113.668C113.06 6.13825 112.804 6.39401 112.638 7.02995L111.325 11.9516C111.277 12.1175 111.256 12.2558 111.256 12.3733C111.256 12.6982 111.442 12.8433 111.892 12.8433H114.187C114.843 12.8433 115.099 12.5876 115.265 11.9516L116.578 7.02995H116.571Z" fill="#002857"></path>
<path d="M130.915 6.13825C130.237 6.13825 129.954 6.37327 129.767 7.05069L127.638 14.9931H121.687L123.56 7.99078C124.217 5.52995 125.717 3.98157 128.316 3.98157H134.385L133.797 6.13825H130.915Z" fill="#002857"></path>
<path d="M38.6405 22.6105C40.099 22.1128 42.1866 21.0898 43.0507 20.675C43.8594 20.288 45.7534 19.3962 45.7534 19.3962C45.7534 19.3962 45.1106 18.8502 42.8364 19.9009L37.2995 19.0714L36.4908 19.334L40.8594 20.8409H40.8318C39.8848 21.2626 38.9239 21.6566 38.1083 21.9469L36.5253 21.2004L35.3087 21.228L36.9124 22.2373C34.1682 22.9562 32.0668 22.9216 30.159 22.887C21.8156 22.728 15.1106 19.6658 15.1866 15.5115C15.2073 14.4677 15.6567 13.0575 16.4378 12.1658C14.9101 13.3064 13.9493 14.675 13.9838 16.1681C14.1083 20.9861 21.8917 23.8824 29.7995 23.9792C30.7742 23.993 31.659 23.9654 32.4746 23.9032C32.4746 23.9032 33.712 23.8617 35.0599 23.5921C36.9539 23.2119 37.735 22.9009 38.6405 22.5898" fill="#0C70E8"></path>
</g>
<defs>
<clipPath id="clip0_10633_35637">
<rect width="134" height="30" fill="white" transform="translate(0.794922)"></rect>
</clipPath>
</defs>
</svg>