<svg width="125" height="24" viewBox="0 0 125 24" fill="none" xmlns="http://www.w3.org/2000/svg">
<g clip-path="url(#clip0_10633_35541)">
<path d="M13.7776 10.4498H7.99215L6.77416 14.9965H0.794922L4.80184 0H16.9403C18.1582 0 19.9645 0.442906 19.9645 2.45675C19.9645 2.80969 19.8953 3.20415 19.7776 3.65398L18.9818 6.609C18.1859 9.58477 15.7499 10.4498 13.7776 10.4498ZM13.8261 3.75086C13.8953 3.49481 13.9437 3.21107 13.9437 3.02422C13.9437 2.58131 13.7084 2.46367 13.1202 2.46367H10.1236L8.67035 7.87543H11.5077C12.3243 7.87543 12.7742 7.64014 13.051 6.58824L13.8261 3.75086Z" fill="#0C70E8"></path>
<path d="M20.6219 14.9965C18.7949 14.9965 18.0683 14.436 18.0683 13.218C18.0683 12.7959 18.1652 12.2768 18.3244 11.6678L18.532 10.9412C19.141 8.64361 20.1237 7.61247 22.6081 7.61247H28.5804L28.7673 6.83738C28.788 6.71973 28.8157 6.65053 28.8157 6.55364C28.8157 6.26991 28.6289 6.1315 28.0199 6.1315H22.2552L22.8434 3.97925H31.3693C33.3624 3.97925 34.2759 4.58824 34.2759 6.15918C34.2759 6.69897 34.179 7.32873 33.9714 8.08305L32.1237 14.9965H20.6219ZM27.9991 9.77164H25.5354C24.6911 9.77164 24.3174 9.91004 24.1029 10.7059L23.7984 11.9031C23.75 12.0692 23.7292 12.2076 23.7292 12.3253C23.7292 12.7474 24.0545 12.8443 24.7119 12.8443H26.2136C27.1271 12.8443 27.224 12.7059 27.5285 11.5087L27.9991 9.77164Z" fill="#0C70E8"></path>
<path d="M42.9956 6.13845C42.3174 6.13845 42.0337 6.37375 41.8468 7.05195L39.7154 14.9966H33.7638L35.6392 7.99313C36.2967 5.53638 37.7915 3.98621 40.3936 3.98621H46.4628L45.8745 6.13845H42.9956Z" fill="#0C70E8"></path>
<path d="M48.1998 14.9966C46.7673 14.9966 45.6254 14.5536 45.6254 12.9135C45.6254 12.5398 45.6946 12.0692 45.833 11.5571L48.5043 1.59863H54.0337L53.404 3.98618H56.8711L56.2829 6.13843H52.8157L51.2725 11.9516C51.224 12.1384 51.1756 12.3045 51.1756 12.4222C51.1756 12.7474 51.4109 12.8443 52.1375 12.8443H54.8088L54.2206 14.9966H48.1998Z" fill="#0C70E8"></path>
<path d="M71.2794 2.53287H67.4385C66.7603 2.53287 66.0821 2.81661 66.0821 3.7301C66.0821 3.98616 66.179 4.15225 66.269 4.35986L68.8226 9.82007C68.9403 10.0554 69.1064 10.4775 69.1064 11.0381C69.1064 12.8651 67.2794 14.9965 65.2171 14.9965H55.5839L56.2621 12.4913H59.9852C60.878 12.4913 61.4593 12.0208 61.4593 11.2734C61.4593 10.9481 61.3624 10.7612 61.224 10.4775L58.7396 5.23183C58.6427 5.04498 58.525 4.67128 58.525 4.20069C58.525 3.54325 58.7396 2.65052 59.487 1.71626C60.7603 0.117647 62.6358 0 62.8918 0H71.9368L71.2794 2.53287Z" fill="#002857"></path>
<path d="M72.9956 14.9966C71.5631 14.9966 70.4212 14.5536 70.4212 12.9135C70.4212 12.5398 70.4904 12.0692 70.6288 11.5571L73.3001 1.59863H78.8295L78.1997 3.98618H81.6669L81.0786 6.13843H77.6115L76.0683 11.9516C76.0198 12.1384 75.9714 12.3045 75.9714 12.4222C75.9714 12.7474 76.2067 12.8443 76.9333 12.8443H79.6046L79.0164 14.9966H72.9956Z" fill="#002857"></path>
<path d="M92.1859 14.9966H83.5631C81.7361 14.9966 81.0095 14.436 81.0095 13.218C81.0095 12.7959 81.1063 12.2838 81.2655 11.6748L82.4351 7.31493C83.0441 5.01735 84.0268 3.98621 86.5112 3.98621H95.134C96.961 3.98621 97.6877 4.54676 97.6877 5.76475C97.6877 6.1869 97.5908 6.69901 97.4316 7.30801L96.262 11.6679C95.6531 13.9654 94.6704 14.9966 92.1859 14.9966ZM91.9714 7.03119C92.0198 6.8651 92.0406 6.72669 92.0406 6.60904C92.0406 6.28378 91.8537 6.13845 91.3624 6.13845H89.0648C88.4558 6.13845 88.1998 6.39451 88.0337 7.03119L86.7188 11.9516C86.6704 12.1177 86.6496 12.2561 86.6496 12.3737C86.6496 12.699 86.8364 12.8443 87.2794 12.8443H89.5769C90.2344 12.8443 90.4904 12.5883 90.6565 11.9516L91.9714 7.03119Z" fill="#002857"></path>
<path d="M106.317 6.13845C105.639 6.13845 105.355 6.37375 105.169 7.05195L103.037 14.9966H97.0856L98.961 7.99313C99.6184 5.53638 101.113 3.98621 103.715 3.98621H109.785L109.196 6.13845H106.317Z" fill="#002857"></path>
<path d="M114.352 10.9204L114.144 11.7163C114.096 11.8824 114.075 12.0208 114.075 12.1592C114.075 12.6298 114.4 12.8374 115.106 12.8374H121.058L120.47 14.9896H110.913C109.086 14.9896 108.359 14.4291 108.359 13.2111C108.359 12.7889 108.456 12.2768 108.615 11.6678L109.785 7.30797C110.394 5.01039 111.376 3.97925 113.861 3.97925H122.276C124.103 3.97925 124.83 4.5398 124.83 5.75779C124.83 6.17994 124.733 6.69205 124.573 7.30105L123.612 10.9066H114.359L114.352 10.9204ZM119.252 7.03115C119.3 6.86506 119.321 6.72665 119.321 6.60901C119.321 6.28375 119.134 6.13842 118.691 6.13842H116.421C115.812 6.13842 115.556 6.39447 115.39 7.03115L114.92 8.76818H118.788L119.259 7.03115H119.252Z" fill="#002857"></path>
<path d="M38.6427 22.6091C40.1029 22.1108 42.1929 21.0866 43.051 20.6783C43.8607 20.2907 45.7499 19.398 45.7499 19.398C45.7499 19.398 45.1063 18.8513 42.8295 19.9032L37.2932 19.0727L36.4904 19.3357L40.8641 20.8444H40.8365C39.8884 21.2665 38.9333 21.661 38.1167 21.9516L36.532 21.2042L35.314 21.2319L36.9126 22.2423C34.1652 22.9551 32.0683 22.9274 30.1583 22.8928C21.8122 22.7337 15.1063 19.6748 15.1894 15.5157C15.2102 14.4776 15.66 13.0589 16.442 12.1731C14.9195 13.315 13.9506 14.6852 13.9852 16.1731C14.1098 20.9897 21.8953 23.8894 29.7984 23.9862C30.7672 24.0001 31.66 23.9724 32.4697 23.9101C32.4697 23.9101 33.7084 23.8686 35.0579 23.5987C36.9541 23.2181 37.7361 22.9067 38.6358 22.6022" fill="#0C70E8"></path>
</g>
<defs>
<clipPath id="clip0_10633_35541">
<rect width="124.035" height="24" fill="white" transform="translate(0.794922)"></rect>
</clipPath>
</defs>
</svg>